# xmcd
#
# Track frame offsets: 
#        150
#        23010
#        42532
#        67992
#        85810
#        110016
#        143766
#        163241
#        180032
#        200591
#
# Disc length: 2930 seconds
#
# Revision: 0
# Processed by: cddbd v1.5.2PL0 Copyright (c) Steve Scherf et al.
# Submitted via: ExactAudioCopyFreeDBPlugin 1.0
#
DISCID=810b700a
DTITLE=Chris Rea - On The Beach
DYEAR=2019
DGENRE=Blues
TTITLE0=On The Beach
TTITLE1=Little Blonde Plaits
TTITLE2=Giverny
TTITLE3=Lucky Day
TTITLE4=Just Passing Through
TTITLE5=It's All Gone
TTITLE6=Hello Friend
TTITLE7=Two Roads
TTITLE8=Light Of Hope
TTITLE9=Auf Immer Und Ewig
EXTD=
EXTT0=
EXTT1=
EXTT2=
EXTT3=
EXTT4=
EXTT5=
EXTT6=
EXTT7=
EXTT8=
EXTT9=
PLAYORDER=
